<svg width="38" height="38" viewBox="0 0 38 38" fill="none" xmlns="http://www.w3.org/2000/svg">
<g id="goal">
<path id="Vector" d="M19.0001 20.5834V3.16675L31.6668 9.50008L19.0001 15.8334M32.5549 16.1847C33.3975 18.7816 33.4763 21.5659 32.782 24.2063C32.0877 26.8467 30.6496 29.2321 28.6386 31.0787C26.6277 32.9252 24.1286 34.1552 21.4387 34.6224C18.7488 35.0895 15.9813 34.7741 13.4655 33.7137C10.9497 32.6532 8.79153 30.8924 7.24767 28.6407C5.70381 26.3889 4.83929 23.7411 4.75697 21.0122C4.67465 18.2833 5.37798 15.5882 6.7833 13.2475C8.18863 10.9068 10.2368 9.01906 12.6841 7.8089M12.6698 15.8288C11.8764 16.8849 11.3598 18.1228 11.1673 19.4296C10.9747 20.7364 11.1121 22.0706 11.5671 23.3107C12.0221 24.5508 12.7802 25.6574 13.7723 26.5295C14.7644 27.4017 15.9589 28.0117 17.2471 28.3041C18.5353 28.5965 19.8761 28.5619 21.1475 28.2035C22.4189 27.845 23.5803 27.1742 24.5261 26.252C25.4719 25.3298 26.1719 24.1856 26.5623 22.9237C26.9527 21.6618 27.0212 20.3223 26.7614 19.0271" stroke="black" stroke-width="2" stroke-linecap="round" stroke-linejoin="round"/>
</g>
</svg>
